<svg xmlns="http://www.w3.org/2000/svg" version="1.1" xmlns:xlink="http://www.w3.org/1999/xlink" xmlns:svgjs="http://svgjs.dev/svgjs" width="1000" height="628" viewBox="0 0 1000 628"><g transform="matrix(1,0,0,1,-0.6060606060606233,-0.5661182892565648)"><svg viewBox="0 0 396 249" data-background-color="#fdf8f1" preserveAspectRatio="xMidYMid meet" height="628" width="1000" xmlns="http://www.w3.org/2000/svg" xmlns:xlink="http://www.w3.org/1999/xlink"><defs></defs><g id="tight-bounds" transform="matrix(1,0,0,1,0.2400000000000091,1.5705204944798368)"><svg viewBox="0 0 395.52 247.2" height="247.2" width="395.52"><g><svg></svg></g><g><svg viewBox="0 0 395.52 247.2" height="247.2" width="395.52"><g transform="matrix(3.478014184397163, 0, 0, 3.478014184397163, 54.29191489361702, 1)"><svg xmlns="http://www.w3.org/2000/svg" data-name="Layer 1" viewBox="8.75 15.75 82.5 70.5" x="0" y="0" height="70.5" width="82.5" class="icon-none" data-fill-palette-color="accent" id="none"><rect x="26" y="33.75" width="13" height="2.5" fill="#fa4238" data-fill-palette-color="accent"></rect><rect x="26" y="41.75" width="13" height="2.5" fill="#fa4238" data-fill-palette-color="accent"></rect><rect x="61" y="33.75" width="13" height="2.5" fill="#fa4238" data-fill-palette-color="accent"></rect><rect x="61" y="41.75" width="13" height="2.5" fill="#fa4238" data-fill-palette-color="accent"></rect><path d="M88 45.75H86.25V27A6.25 6.25 0 0 0 80 20.75H77.25V19A3.26 3.26 0 0 0 74 15.75H61A3.26 3.26 0 0 0 57.75 19v1.75H55a6.22 6.22 0 0 0-5 2.52 6.22 6.22 0 0 0-5-2.52H42.25V19A3.26 3.26 0 0 0 39 15.75H26A3.26 3.26 0 0 0 22.75 19v1.75H20A6.25 6.25 0 0 0 13.75 27V45.75H12A3.26 3.26 0 0 0 8.75 49v3A3.26 3.26 0 0 0 12 55.25h1.75v6.69a5.26 5.26 0 0 0-1 3.06v8.25H17l3 13H45l3-13h4l3 13H80l3-13h4.26V65a5.26 5.26 0 0 0-1-3.06V55.25H88A3.26 3.26 0 0 0 91.25 52V49A3.26 3.26 0 0 0 88 45.75ZM60.25 19a0.76 0.76 0 0 1 0.75-0.75H74a0.76 0.76 0 0 1 0.75 0.75v6a0.76 0.76 0 0 1-0.75 0.75H61a0.76 0.76 0 0 1-0.75-0.75ZM53 48.25a0.76 0.76 0 0 1 0.75 0.75v3a0.76 0.76 0 0 1-0.75 0.75H47a0.76 0.76 0 0 1-0.75-0.75V49a0.76 0.76 0 0 1 0.75-0.75Zm-41 4.5a0.76 0.76 0 0 1-0.75-0.75V49a0.76 0.76 0 0 1 0.75-0.75h6a0.76 0.76 0 0 1 0.75 0.75v3a0.76 0.76 0 0 1-0.75 0.75Zm36.75 18H31v2.5H45.43L43 83.75H22l-2.42-10.5H25v-2.5H15.25V65A2.75 2.75 0 0 1 18 62.25H46A2.75 2.75 0 0 1 48.75 65Zm0-10.2a5.17 5.17 0 0 0-2.75-0.8H18a5.32 5.32 0 0 0-1.75 0.32V55.25H18A3.26 3.26 0 0 0 21.25 52V49A3.26 3.26 0 0 0 18 45.75H16.25V27A3.75 3.75 0 0 1 20 23.25h2.75V25A3.26 3.26 0 0 0 26 28.25h2v-2.5H26a0.76 0.76 0 0 1-0.75-0.75V19a0.76 0.76 0 0 1 0.75-0.75H39a0.76 0.76 0 0 1 0.75 0.75v6a0.76 0.76 0 0 1-0.75 0.75H33v2.5h6A3.26 3.26 0 0 0 42.25 25V23.25H45A3.75 3.75 0 0 1 48.75 27V45.75H47A3.26 3.26 0 0 0 43.75 49v3A3.26 3.26 0 0 0 47 55.25h1.75ZM78 83.75H57l-2.42-10.5H80.43Zm6.74-13H51.25V65A2.75 2.75 0 0 1 54 62.25H71v-2.5H54a5.17 5.17 0 0 0-2.75 0.8v-5.3H53A3.26 3.26 0 0 0 56.25 52V49A3.26 3.26 0 0 0 53 45.75H51.25V27A3.75 3.75 0 0 1 55 23.25h2.75V25A3.26 3.26 0 0 0 61 28.25H74A3.26 3.26 0 0 0 77.25 25V23.25H80A3.75 3.75 0 0 1 83.75 27V45.75H82A3.26 3.26 0 0 0 78.75 49v3A3.26 3.26 0 0 0 82 55.25h1.75v4.82A5.32 5.32 0 0 0 82 59.75H77v2.5h5A2.75 2.75 0 0 1 84.75 65Zm4-18.75a0.76 0.76 0 0 1-0.75 0.75H82a0.76 0.76 0 0 1-0.75-0.75V49a0.76 0.76 0 0 1 0.75-0.75h6a0.76 0.76 0 0 1 0.75 0.75Z" fill="#fa4238" data-fill-palette-color="accent"></path></svg></g><rect width="348.05760000000004" height="68.23814560381209" fill="#fdf8f1" y="89.48092719809395" x="23.731199999999973" data-fill-palette-color="quaternary"></rect><g transform="matrix(1,0,0,1,39.55199999999999,100.42367527136733)"><svg viewBox="0 0 316.416 46.35264945726534" height="46.35264945726534" width="316.416"><g><svg viewBox="0 0 316.416 46.35264945726534" height="46.35264945726534" width="316.416"><g><svg viewBox="0 0 316.416 46.35264945726534" height="46.35264945726534" width="316.416"><g><svg viewBox="0 0 316.416 46.35264945726534" height="46.35264945726534" width="316.416"><g><svg viewBox="0 0 316.416 46.35264945726534" height="46.35264945726534" width="316.416"><g><svg viewBox="0 0 316.416 46.35264945726534" height="46.35264945726534" width="316.416"><g transform="matrix(1,0,0,1,0,0)"><svg width="316.416" viewBox="1.8600000143051147 -38.54999923706055 267.6200256347656 39.209999084472656" height="46.35264945726534" data-palette-color="#fa4238"><path d="M12.94-28.86L12.94-25.29 17.55-25.29 17.55-18.9 12.94-18.9 12.94-6.69 17.6-6.69 17.6 0 1.9 0 1.9-6.69 5.69-6.69 5.69-18.9 1.86-18.9 1.86-25.29 5.69-25.29 5.69-29.49Q5.69-31.71 6.47-33.4 7.25-35.08 8.56-36.23 9.86-37.38 11.57-37.96 13.28-38.55 15.16-38.55L15.16-38.55Q16.55-38.55 17.65-38.34 18.75-38.13 19.58-37.82 20.41-37.5 20.98-37.13 21.56-36.77 21.9-36.45L21.9-36.45 19.09-31.3Q18.53-31.71 17.82-31.96 17.11-32.2 16.09-32.2L16.09-32.2Q15.43-32.2 14.86-31.98 14.28-31.76 13.85-31.35 13.43-30.93 13.18-30.31 12.94-29.69 12.94-28.86L12.94-28.86ZM21.85-18.6L21.85-25.29 33.2-25.29 33.2-6.69 36.72-6.69 36.72 0 21.85 0 21.85-6.69 25.66-6.69 25.66-18.6 21.85-18.6ZM25.27-33.45L25.27-33.45Q25.27-34.35 25.6-35.14 25.93-35.94 26.51-36.52 27.1-37.11 27.89-37.45 28.68-37.79 29.61-37.79L29.61-37.79Q30.49-37.79 31.27-37.45 32.05-37.11 32.64-36.52 33.23-35.94 33.57-35.14 33.91-34.35 33.91-33.45L33.91-33.45Q33.91-32.54 33.57-31.75 33.23-30.96 32.64-30.37 32.05-29.79 31.27-29.44 30.49-29.1 29.61-29.1L29.61-29.1Q28.68-29.1 27.89-29.44 27.1-29.79 26.51-30.37 25.93-30.96 25.6-31.75 25.27-32.54 25.27-33.45ZM61.93 0L61.93-14.55Q61.93-16.67 60.81-17.88 59.69-19.09 57.83-19.09L57.83-19.09Q56.56-19.09 55.27-18.53 53.97-17.97 52.75-16.43L52.75-16.43 52.75-6.69 56.86-6.69 56.86 0 41.13 0 41.13-6.69 44.84-6.69 44.84-18.6 41.18-18.6 41.18-25.29 52.7-25.29 52.7-23.07Q54.29-24.32 56.26-25.04 58.22-25.76 60.4-25.76L60.4-25.76Q64.96-25.76 67.43-23.21 69.89-20.65 69.89-15.75L69.89-15.75 69.89-6.69 73.48-6.69 73.48 0 61.93 0ZM91.74-31.3L91.74-37.99 102.8-37.99 102.8-6.69 107.73-6.69 107.73 0 95.28 0 95.28-0.98Q93.96-0.29 92.58 0.1 91.2 0.49 89.79 0.49L89.79 0.49Q86.88 0.49 84.45-0.55 82.02-1.59 80.28-3.39 78.53-5.2 77.56-7.63 76.58-10.06 76.58-12.84L76.58-12.84Q76.58-15.63 77.54-18.03 78.51-20.43 80.23-22.22 81.95-24 84.36-25.02 86.76-26.05 89.64-26.05L89.64-26.05Q91.23-26.05 92.62-25.74 94.01-25.44 95.28-24.88L95.28-24.88 95.28-31.3 91.74-31.3ZM90.2-6.25L90.2-6.25Q91.81-6.3 93.12-7.08 94.43-7.86 95.28-9.13L95.28-9.13 95.28-16.58Q94.43-17.87 93.07-18.59 91.72-19.31 90.2-19.29L90.2-19.29Q88.93-19.31 87.82-18.85 86.71-18.38 85.87-17.53 85.03-16.67 84.54-15.48 84.05-14.28 84.05-12.77L84.05-12.77Q84.05-11.28 84.54-10.07 85.03-8.86 85.87-8.02 86.71-7.18 87.82-6.74 88.93-6.3 90.2-6.25ZM127.09-17.55Q127.09-18.14 126.71-18.68 126.33-19.21 125.6-19.62 124.87-20.02 123.81-20.26 122.74-20.51 121.4-20.51L121.4-20.51Q120.89-20.51 120.3-20.42 119.72-20.34 119.22-20.12 118.72-19.9 118.39-19.52 118.06-19.14 118.06-18.55L118.06-18.55Q118.06-18.26 118.14-17.99 118.23-17.72 118.47-17.48 118.72-17.24 119.14-17.03 119.57-16.82 120.25-16.7L120.25-16.7 124.84-15.8Q127.33-15.31 129.02-14.58 130.7-13.84 131.73-12.87 132.75-11.89 133.21-10.69 133.66-9.5 133.66-8.11L133.66-8.11Q133.66-5.93 132.64-4.3 131.63-2.66 129.98-1.57 128.33-0.49 126.27 0.06 124.21 0.61 122.11 0.61L122.11 0.61Q120.74 0.61 119.63 0.44 118.52 0.27 117.63-0.02 116.74-0.32 116.04-0.72 115.35-1.12 114.76-1.61L114.76-1.61 110.34-1.61 110.34-8.4 117.25-8.4 117.25-8.25Q117.28-7.54 117.69-7.02 118.11-6.49 118.78-6.13 119.45-5.76 120.3-5.58 121.16-5.4 122.11-5.4L122.11-5.4Q124.31-5.4 125.31-5.97 126.31-6.54 126.31-7.45L126.31-7.45Q126.31-8.15 125.82-8.65 125.33-9.16 124.09-9.45L124.09-9.45 119.4-10.45Q114.98-11.3 112.73-13.29 110.49-15.28 110.49-18.41L110.49-18.41Q110.49-20.24 111.34-21.74 112.2-23.24 113.66-24.3 115.13-25.37 117.09-25.95 119.06-26.54 121.3-26.54L121.3-26.54Q122.84-26.54 124.04-26.35 125.23-26.17 126.19-25.88 127.14-25.59 127.86-25.18 128.58-24.78 129.14-24.34L129.14-24.34 133.39-24.34 133.39-17.55 127.09-17.55ZM163.05-11.06L144.42-11.06 144.49-10.3Q144.76-9.2 145.41-8.37 146.06-7.54 146.94-6.98 147.81-6.42 148.89-6.14 149.96-5.86 151.06-5.86L151.06-5.86Q152.16-5.86 153.15-5.99 154.14-6.13 155.07-6.36 155.99-6.59 156.87-6.9 157.75-7.2 158.65-7.54L158.65-7.54 161.34-2.54Q159.95-1.68 158.79-1.09 157.63-0.49 156.46-0.1 155.29 0.29 153.97 0.48 152.65 0.66 150.89 0.66L150.89 0.66Q147.59 0.66 145.03-0.43 142.47-1.51 140.72-3.37 138.98-5.22 138.06-7.71 137.15-10.21 137.15-12.99L137.15-12.99Q137.15-15.77 138.11-18.21 139.07-20.65 140.83-22.47 142.59-24.29 145.03-25.34 147.47-26.39 150.45-26.39L150.45-26.39Q153.43-26.39 155.74-25.4 158.04-24.41 159.63-22.67 161.22-20.92 162.07-18.57 162.93-16.21 163-13.5L163-13.5Q163.07-12.89 163.09-12.29 163.1-11.69 163.05-11.06L163.05-11.06ZM150.26-20.29L150.26-20.29Q148.89-20.29 147.92-19.96 146.96-19.63 146.3-19.06 145.64-18.48 145.25-17.75 144.86-17.02 144.64-16.21L144.64-16.21 155.21-16.21Q155.04-17.04 154.72-17.77 154.41-18.51 153.84-19.07 153.28-19.63 152.42-19.96 151.55-20.29 150.26-20.29ZM182.36 0L182.36-1.37Q181.5-0.83 180.8-0.45 180.09-0.07 179.38 0.16 178.67 0.39 177.91 0.5 177.16 0.61 176.25 0.61L176.25 0.61Q173.98 0.61 172.19-0.01 170.4-0.63 169.16-1.72 167.93-2.81 167.27-4.28 166.61-5.76 166.61-7.5L166.61-7.5Q166.61-9.25 167.28-10.74 167.95-12.23 169.22-13.29 170.49-14.36 172.34-14.95 174.18-15.55 176.55-15.55L176.55-15.55Q178.28-15.55 179.71-15.37 181.14-15.19 182.36-14.92L182.36-14.92 182.36-15.7Q182.36-16.65 181.99-17.35 181.63-18.04 180.97-18.49 180.31-18.95 179.38-19.15 178.45-19.36 177.35-19.36L177.35-19.36Q175.06-19.36 173.31-18.91 171.57-18.46 169.96-17.6L169.96-17.6 167.61-22.34Q170.1-24.05 172.82-24.95 175.55-25.85 178.6-25.85L178.6-25.85Q180.97-25.85 182.98-25.33 184.99-24.8 186.44-23.62 187.88-22.44 188.69-20.53 189.51-18.63 189.51-15.89L189.51-15.89 189.51-6.69 192.9-6.69 192.9 0 182.36 0ZM176.79-5.15L176.79-5.15Q178.53-5.15 179.94-5.71 181.36-6.27 182.36-7.08L182.36-7.08 182.36-10.3 176.5-10.3Q175.94-10.3 175.4-10.13 174.86-9.96 174.44-9.64 174.01-9.33 173.75-8.86 173.5-8.4 173.5-7.79L173.5-7.79Q173.5-6.67 174.31-5.91 175.13-5.15 176.79-5.15ZM207.65-34.96L207.6-25.29 212.65-25.29 212.65-18.9 207.55-18.9 207.5-8.2Q207.5-7.28 207.65-6.7 207.8-6.13 208.08-5.79 208.36-5.44 208.75-5.32 209.14-5.2 209.65-5.2L209.65-5.2Q210.58-5.2 211.29-5.38 211.99-5.57 212.7-5.81L212.7-5.81 213.75-1.1Q212.51-0.32 210.98 0.15 209.46 0.61 207.36 0.61L207.36 0.61Q205.87 0.61 204.51 0.1 203.16-0.42 202.13-1.45 201.11-2.49 200.5-4.05 199.88-5.62 199.91-7.69L199.91-7.69 199.98-18.9 196.34-18.9 196.34-25.29 200.01-25.29 200.06-31.35 207.65-34.96ZM242.78-11.06L224.15-11.06 224.22-10.3Q224.49-9.2 225.14-8.37 225.79-7.54 226.66-6.98 227.54-6.42 228.62-6.14 229.69-5.86 230.79-5.86L230.79-5.86Q231.89-5.86 232.88-5.99 233.87-6.13 234.79-6.36 235.72-6.59 236.6-6.9 237.48-7.2 238.38-7.54L238.38-7.54 241.07-2.54Q239.68-1.68 238.52-1.09 237.36-0.49 236.19-0.1 235.01 0.29 233.7 0.48 232.38 0.66 230.62 0.66L230.62 0.66Q227.32 0.66 224.76-0.43 222.2-1.51 220.45-3.37 218.71-5.22 217.79-7.71 216.87-10.21 216.87-12.99L216.87-12.99Q216.87-15.77 217.84-18.21 218.8-20.65 220.56-22.47 222.32-24.29 224.76-25.34 227.2-26.39 230.18-26.39L230.18-26.39Q233.16-26.39 235.47-25.4 237.77-24.41 239.36-22.67 240.95-20.92 241.8-18.57 242.66-16.21 242.73-13.5L242.73-13.5Q242.8-12.89 242.81-12.29 242.83-11.69 242.78-11.06L242.78-11.06ZM229.98-20.29L229.98-20.29Q228.62-20.29 227.65-19.96 226.69-19.63 226.03-19.06 225.37-18.48 224.98-17.75 224.59-17.02 224.37-16.21L224.37-16.21 234.94-16.21Q234.77-17.04 234.45-17.77 234.14-18.51 233.57-19.07 233.01-19.63 232.15-19.96 231.28-20.29 229.98-20.29ZM269.48-25.24L269.48-16.09 262.62-16.09 262.62-18.7Q261.62-18.7 260.79-18.57 259.96-18.43 259.34-18.12 258.72-17.8 258.29-17.24 257.86-16.67 257.69-15.84L257.69-15.84 257.69-6.69 262.84-6.69 262.84 0 246.34 0 246.34-6.69 250.12-6.69 250.12-18.6 246.39-18.6 246.39-25.29 257.64-25.29 257.64-23.51Q258.72-24.37 260.06-24.83 261.4-25.29 262.99-25.29L262.99-25.29Q264.6-25.29 266.31-25.27 268.02-25.24 269.48-25.24L269.48-25.24Z" opacity="1" transform="matrix(1,0,0,1,0,0)" fill="#fa4238" class="undefined-text-0" data-fill-palette-color="primary" id="text-0"></path></svg></g></svg></g></svg></g></svg></g><g></g></svg></g></svg></g></svg></g></svg></g></svg><rect width="395.52" height="247.2" fill="none" stroke="none" visibility="hidden"></rect></g></svg></g></svg>